<svg width="594" height="794" viewBox="0 0 594 794" fill="none" xmlns="http://www.w3.org/2000/svg">
<g filter="url(#filter0_d_142_480)">
<g clip-path="url(#clip0_142_480)">
<rect x="40" y="7" width="534" height="755" rx="12.7143" fill="url(#paint0_linear_142_480)"/>
<path d="M115.014 45.1423C115.027 45.2414 115.111 45.3351 115.154 45.4219" stroke="#F4FF54" stroke-width="3.81429" stroke-linecap="round"/>
<path d="M315.9 69.3002H316.042" stroke="#F4FF54" stroke-width="3.81429" stroke-linecap="round"/>
<path d="M477.372 118.628C477.372 119.575 477.805 119.654 478.589 119.899C479.412 120.156 480.035 119.979 480.035 119.112C480.035 118.411 479.894 117.837 479.127 117.666C478.735 117.579 478.557 117.617 478.219 117.66C477.925 117.696 477.952 118.277 477.735 118.386" stroke="#F4FF54" stroke-width="3.81429" stroke-linecap="round"/>
<path d="M552.386 79.4714V79.7115" stroke="#F4FF54" stroke-width="3.81429" stroke-linecap="round"/>
<path d="M549.979 186.829C549.78 186.859 549.8 187.387 550.037 187.387C550.233 187.387 550.687 187.488 550.835 187.309C551.409 186.613 550.2 186.271 549.864 186.271" stroke="#F4FF54" stroke-width="3.81429" stroke-linecap="round"/>
<path d="M466.849 214.995C466.849 215.321 466.419 216.178 466.98 216.178C467.704 216.178 467.895 215.945 468.038 215.217C468.208 214.358 467.435 214.552 466.849 214.552C466.433 214.552 466.259 214.525 466.126 215.003C466.027 215.36 465.941 216.2 466.133 216.539C466.432 217.068 468.009 217.721 468.498 217.27C469.219 216.606 469.117 215.792 469.082 214.815C469.057 214.105 467.872 214.256 467.44 214.256C466.797 214.256 466.117 215.1 465.929 215.734" stroke="#F4FF54" stroke-width="3.81429" stroke-linecap="round"/>
<path d="M162.057 69.3002C162.12 69.8006 162.233 69.6599 162.6 69.8433" stroke="#F4FF54" stroke-width="3.81429" stroke-linecap="round"/>
<path d="M366.757 24.6128C366.757 25.6007 368.856 26.8871 368.926 25.6971C369.027 23.9751 368.393 23.5284 366.757 23.5284" stroke="#F4FF54" stroke-width="3.81429" stroke-linecap="round"/>
<path d="M183.036 27.8151C182.162 27.8151 182.39 29.5218 182.927 29.8797C183.461 30.2358 184.504 30.2084 185.082 29.9947C185.933 29.6804 186.414 29.43 186.414 28.4448C186.414 27.6928 186.5 26.966 185.754 26.5558C185.055 26.1713 184.421 26.0714 183.635 26.0714C182.881 26.0714 182.613 26.8883 182.467 27.4882C182.307 28.1456 182.424 28.2425 182.927 28.578" stroke="#F4FF54" stroke-width="3.81429" stroke-linecap="round"/>
<path d="M144.258 176.1C144.258 176.431 144.243 176.472 144.511 176.606" stroke="#F4FF54" stroke-width="3.81429" stroke-linecap="round"/>
<path d="M122.754 127.785H122.643" stroke="#F4FF54" stroke-width="3.81429" stroke-linecap="round"/>
<path d="M445.59 54.0425C445.59 54.2186 445.553 54.318 445.707 54.3951" stroke="#F4FF54" stroke-width="3.81429" stroke-linecap="round"/>
<path d="M93.4001 6.99988L93.4001 762.228" stroke="#6D6D6D" stroke-width="1.27143"/>
<rect x="153.793" y="382.707" width="359.814" height="321.671" rx="27.3357" fill="#BFC6EA" stroke="#8088B2" stroke-width="3.81429"/>
<path d="M165.871 438.014L501.528 438.014" stroke="black" stroke-width="1.27143"/>
<path d="M165.871 537.186H501.528" stroke="black" stroke-width="1.27143"/>
<path d="M165.871 586.771H501.528" stroke="black" stroke-width="1.27143"/>
<path d="M165.871 636.357H501.528" stroke="black" stroke-width="1.27143"/>
<path d="M165.871 685.943H501.528" stroke="black" stroke-width="1.27143"/>
<path d="M165.871 487.6L501.528 487.6" stroke="black" stroke-width="1.27143"/>
<path d="M333.886 234.192V234.335L333.918 234.474L335.125 239.68H335.091L335.429 241.201C335.701 242.424 336.368 243.334 337.507 243.903C338.489 244.395 339.565 244.621 340.8 244.621C341.494 244.621 342.321 244.568 343.317 244.469L343.317 244.469L343.324 244.468C344.293 244.366 345.258 244.213 346.264 244.012C346.593 243.95 346.926 243.89 347.257 243.83C347.899 243.715 348.535 243.6 349.128 243.469C349.193 243.454 349.258 243.44 349.323 243.425C350.088 243.256 350.8 243.098 351.384 242.886L351.382 242.876C352.261 242.613 353.056 242.113 353.49 241.245L353.514 241.198L353.533 241.15C353.791 240.506 353.931 239.771 353.861 239.01L353.854 238.925L353.835 238.842C353.625 237.934 353.13 237.152 352.421 236.585L351.686 237.503L352.421 236.585C351.603 235.931 350.554 235.72 349.462 236.011L349.39 236.03L349.32 236.058C348.673 236.317 348.011 236.496 347.235 236.69C347.024 236.743 346.822 236.794 346.625 236.844C346.068 236.985 345.564 237.113 345.079 237.217C344.663 237.307 344.331 237.365 344.007 237.423C343.821 237.456 343.638 237.488 343.442 237.526L343.198 236.081C343.647 235.961 344.186 235.818 344.814 235.649C345.596 235.468 346.451 235.246 347.343 235.015C347.904 234.869 348.48 234.72 349.062 234.574L349.125 234.558L349.186 234.536C349.719 234.343 350.211 234.162 350.622 233.989C351.015 233.825 351.429 233.63 351.755 233.385L351.005 232.385L351.755 233.385C352.461 232.856 352.809 232.111 353.037 231.312L353.053 231.258L353.063 231.203C353.27 230.117 353.372 228.992 353.468 227.938L353.471 227.908L353.473 227.88L353.475 227.852C353.522 226.817 353.616 225.835 353.755 224.904L353.769 224.812V224.719C353.769 224.063 353.45 223.505 353.098 223.085C352.736 222.655 352.24 222.25 351.646 221.869C350.617 221.168 349.421 220.873 348.125 220.931L339.245 221.223L339.229 221.224L339.213 221.225C338.176 221.286 337.227 221.608 336.545 222.375L336.524 222.399L336.504 222.424C335.941 223.128 335.677 223.913 335.742 224.776C335.756 225.617 336.078 226.382 336.696 227.02C337.418 227.881 338.448 228.136 339.495 228.015L344.654 227.71C344.65 227.755 344.647 227.801 344.643 227.848C344.639 227.895 344.636 227.943 344.632 227.992L344.632 227.992L344.631 227.999C344.618 228.192 344.604 228.362 344.591 228.512L338.389 230.149C337.332 230.414 336.318 230.799 335.485 231.333L335.46 231.35L335.435 231.368C334.492 232.041 333.886 232.977 333.886 234.192ZM356.298 222.18V222.202L356.299 222.225L357.08 243.886C357.086 244.437 357.276 244.977 357.702 245.403C358.091 245.792 358.585 245.993 359.051 246.098C359.913 246.338 360.849 246.384 361.837 246.274L361.856 246.272L361.875 246.269C362.598 246.166 363.368 246.006 364.11 245.725C364.503 245.6 364.918 245.413 365.257 245.111C365.64 244.771 365.927 244.277 365.927 243.664V243.648L365.927 243.632L365.713 235.341L369.273 235.051C370.309 235.039 371.278 234.692 371.952 233.849C372.438 233.242 372.861 232.484 372.861 231.506C372.861 230.565 372.427 229.805 371.952 229.211L371.932 229.186L371.91 229.162C371.265 228.436 370.379 228.059 369.365 228.059H369.322L369.28 228.062L365.56 228.314L365.439 221.872C365.434 221.204 365.078 220.709 364.689 220.398C364.323 220.105 363.876 219.926 363.458 219.806C362.603 219.562 361.68 219.514 360.82 219.514H360.75L360.682 219.521C359.743 219.626 358.908 219.788 358.104 220.075C357.69 220.223 357.256 220.431 356.914 220.76C356.529 221.13 356.298 221.619 356.298 222.18ZM352.7 244.028L352.658 244.026H352.617C351.706 244.026 350.799 244.074 349.911 244.31C349.39 244.441 348.879 244.669 348.486 245.063C348.073 245.476 347.862 245.999 347.851 246.55L347.27 256.331C347.178 257.039 347.451 257.662 347.824 258.138C348.199 258.616 348.729 259.025 349.331 259.381C349.849 259.703 350.401 259.914 351.064 259.99C351.682 260.106 352.274 260.099 352.851 260.048L366.03 259.367C367.035 259.36 367.975 259.012 368.639 258.264C369.144 257.696 369.589 256.924 369.589 256.018C369.589 255.083 369.115 254.355 368.639 253.82L368.614 253.793L368.588 253.767C367.886 253.064 366.92 252.804 365.932 252.865L356.669 253.205L356.99 246.951L356.996 246.841L356.982 246.732C356.854 245.712 356.038 245.046 355.24 244.678L355.224 244.671L355.209 244.664C354.431 244.33 353.607 244.089 352.7 244.028Z" fill="white" stroke="black" stroke-width="2.50001"/>
<path d="M299.93 224.112L299.857 224.104H299.784C298.882 224.104 297.961 224.151 297.107 224.393C296.603 224.529 296.109 224.763 295.729 225.156C295.324 225.576 295.116 226.108 295.116 226.672V226.681C295.116 227.702 295.116 228.798 295.166 229.996C295.168 230.045 295.17 230.094 295.172 230.143C295.218 231.267 295.268 232.46 295.364 233.657L295.365 233.671C295.461 234.873 295.56 236.108 295.708 237.3C295.811 238.515 296.011 239.668 296.207 240.651C296.401 242.004 297.031 243.136 298.017 244.005C299.044 244.961 300.353 245.432 301.838 245.497C302.746 245.597 303.717 245.647 304.747 245.598C305.773 245.596 306.837 245.495 307.831 245.4L307.861 245.397L307.867 245.396C307.917 245.391 307.967 245.386 308.017 245.381C308.93 245.29 309.951 245.189 310.936 244.994C311.912 244.847 312.815 244.697 313.727 244.494L313.79 244.48L313.851 244.46C314.725 244.168 315.568 243.678 316.026 242.783C316.425 242.05 316.486 241.26 316.342 240.538L316.338 240.52L316.334 240.502C316.116 239.556 315.582 238.786 314.762 238.264C313.9 237.716 312.913 237.599 311.865 237.854C311.68 237.892 311.504 237.93 311.33 237.968C310.979 238.045 310.635 238.12 310.238 238.181C309.595 238.28 309.008 238.369 308.428 238.414L308.388 238.417L308.347 238.423C307.71 238.514 307.114 238.56 306.475 238.609C305.997 238.646 305.546 238.653 305.128 238.654C304.69 236.625 304.392 234.715 304.304 232.91L304.303 232.894L304.302 232.877C304.16 230.988 304.16 229.057 304.348 227.084L304.354 227.024V226.965C304.354 225.71 303.329 225.067 302.571 224.742L302.535 224.727L302.499 224.714C301.733 224.44 300.859 224.222 299.93 224.112ZM317.088 222.766V222.782L317.089 222.798L317.87 252.668C317.874 253.221 318.065 253.764 318.492 254.192C318.882 254.581 319.375 254.782 319.841 254.887C320.703 255.127 321.639 255.173 322.627 255.063L322.646 255.061L322.666 255.058C323.389 254.955 324.159 254.795 324.901 254.514C325.293 254.389 325.708 254.202 326.048 253.9C326.431 253.56 326.717 253.066 326.717 252.453V252.444L326.717 252.435L326.491 237.106L330.353 236.809C331.391 236.797 332.361 236.451 333.035 235.607C333.522 234.999 333.944 234.241 333.944 233.264C333.944 232.323 333.51 231.563 333.035 230.969L333.015 230.944L332.994 230.92C332.348 230.194 331.462 229.817 330.448 229.817H330.408L330.368 229.819L326.354 230.077L326.229 222.46C326.225 221.791 325.868 221.295 325.479 220.984C325.113 220.691 324.667 220.511 324.248 220.392C323.393 220.148 322.47 220.1 321.61 220.1H321.541L321.472 220.107C320.533 220.212 319.699 220.374 318.895 220.661C318.48 220.809 318.046 221.017 317.704 221.346C317.319 221.716 317.088 222.205 317.088 222.766Z" fill="white" stroke="black" stroke-width="2.50001"/>
<path d="M443.85 186.716L443.823 186.699L443.795 186.685C443.099 186.313 442.287 186.165 441.414 186.203C441.414 186.203 441.413 186.203 441.413 186.203L434.091 186.508L434.08 186.508L434.069 186.509C433.344 186.552 432.615 186.782 432.079 187.384L432.058 187.408L432.038 187.434C431.621 187.955 431.413 188.556 431.459 189.218C431.473 189.857 431.721 190.438 432.175 190.913C432.747 191.586 433.551 191.771 434.307 191.689L438.31 191.492L436.723 201.352L436.708 201.451V201.551C436.708 201.924 436.805 202.304 437.031 202.649C437.244 202.974 437.531 203.205 437.824 203.368C438.307 203.652 438.863 203.809 439.414 203.885C440.063 203.997 440.753 204.002 441.435 203.832C441.779 203.746 442.161 203.601 442.495 203.331C442.853 203.04 443.089 202.657 443.199 202.22L443.211 202.171L443.219 202.12L445.356 189.119L445.372 189.019V188.917C445.372 188.334 445.055 187.865 444.895 187.641C444.612 187.244 444.248 186.955 443.85 186.716ZM445.863 186.445V186.455L445.863 186.465L446.168 205.226C446.171 205.681 446.329 206.144 446.694 206.509C447.018 206.833 447.414 206.989 447.755 207.067C448.388 207.24 449.012 207.225 449.605 207.16C450.171 207.12 450.703 207.004 451.226 206.818C451.506 206.717 451.828 206.571 452.1 206.338C452.39 206.089 452.696 205.67 452.696 205.091V205.083L452.696 205.075L452.452 186.19C452.449 185.649 452.206 185.178 451.808 184.857C451.464 184.58 451.062 184.458 450.746 184.395C450.175 184.281 449.578 184.245 448.988 184.282L448.954 184.284L448.92 184.288C448.293 184.361 447.734 184.51 447.244 184.698L447.206 184.713L447.169 184.73C446.912 184.848 446.616 185.014 446.37 185.259C446.099 185.53 445.863 185.931 445.863 186.445Z" fill="white" stroke="black" stroke-width="2.50001"/>
<path d="M410.545 188.494L410.539 188.505L410.533 188.515C410.055 189.362 409.753 190.295 409.675 191.306C409.572 192.288 409.637 193.224 409.912 194.087C410.179 194.928 410.612 195.687 411.256 196.331C411.862 196.937 412.591 197.436 413.502 197.777C414.409 198.118 415.389 198.254 416.413 198.254C416.905 198.254 417.394 198.211 417.881 198.125C417.766 198.215 417.656 198.316 417.554 198.432L417.532 198.456L417.512 198.481C417.081 199.019 416.902 199.603 416.902 200.208C416.902 200.869 417.15 201.455 417.564 201.931C418.155 202.648 419.013 202.813 419.763 202.738L419.798 202.737C419.186 202.879 418.618 203.141 418.162 203.559C417.552 204.118 417.207 204.843 417.207 205.701L417.207 205.722C417.207 206.021 417.207 206.468 417.283 206.959L417.286 206.978C417.345 207.363 417.412 207.798 417.514 208.241C417.608 208.648 417.71 209.06 417.851 209.484C417.966 209.827 418.102 210.169 418.294 210.484C418.522 211.133 418.949 211.66 419.553 212.012C420.184 212.379 420.922 212.505 421.662 212.505C422.917 212.505 424.115 212.409 425.285 212.214L425.291 212.213C426.382 212.026 427.447 211.807 428.456 211.555C429.174 211.386 429.782 210.951 430.114 210.238C430.394 209.667 430.443 209.053 430.334 208.508L430.33 208.49L430.326 208.472C430.165 207.774 429.773 207.204 429.215 206.813L429.192 206.798L429.169 206.783C429.096 206.736 429.022 206.694 428.946 206.656C429.226 206.557 429.495 206.433 429.74 206.273C430.457 205.842 430.817 205.179 430.992 204.479L431.016 204.385L431.024 204.289L431.025 204.285L431.025 204.281L431.026 204.277L431.026 204.273L431.026 204.269L431.027 204.265L431.027 204.261L431.027 204.257L431.028 204.253L431.028 204.249L431.028 204.245L431.029 204.241L431.029 204.237L431.029 204.233L431.03 204.23L431.03 204.226L431.031 204.222L431.031 204.218L431.031 204.214L431.032 204.21L431.032 204.206L431.032 204.202L431.033 204.198L431.033 204.194L431.033 204.19L431.034 204.186L431.034 204.182L431.034 204.178L431.035 204.174L431.035 204.171L431.036 204.167L431.036 204.163L431.036 204.159L431.037 204.155L431.037 204.151L431.037 204.147L431.038 204.143L431.038 204.139L431.038 204.135L431.039 204.131L431.039 204.127L431.039 204.123L431.04 204.119L431.04 204.115L431.041 204.112L431.041 204.108L431.041 204.104L431.042 204.1L431.042 204.096L431.042 204.092L431.043 204.088L431.043 204.084L431.043 204.08L431.044 204.076L431.044 204.072L431.044 204.068L431.045 204.064L431.045 204.06L431.046 204.056L431.046 204.053L431.046 204.049L431.047 204.045L431.047 204.041L431.047 204.037L431.048 204.033L431.048 204.029L431.048 204.025L431.049 204.021L431.049 204.017L431.049 204.013L431.05 204.009L431.05 204.005L431.051 204.001L431.051 203.997L431.051 203.993L431.052 203.99L431.052 203.986L431.052 203.982L431.053 203.978L431.053 203.974L431.053 203.97L431.054 203.966L431.054 203.962L431.055 203.958L431.055 203.954L431.055 203.95L431.056 203.946L431.056 203.942L431.056 203.938L431.057 203.934L431.057 203.931L431.057 203.927L431.058 203.923L431.058 203.919L431.058 203.915L431.059 203.911L431.059 203.907L431.06 203.903L431.06 203.899L431.06 203.895L431.061 203.891L431.061 203.887L431.061 203.883L431.062 203.879L431.062 203.875L431.062 203.872L431.063 203.868L431.063 203.864L431.063 203.86L431.064 203.856L431.064 203.852L431.065 203.848L431.065 203.844L431.065 203.84L431.066 203.836L431.066 203.832L431.066 203.828L431.067 203.824L431.067 203.82L431.067 203.816L431.068 203.813L431.068 203.809L431.068 203.805L431.069 203.801L431.069 203.797L431.07 203.793L431.07 203.789L431.07 203.785L431.071 203.781L431.071 203.777L431.071 203.773L431.072 203.769L431.072 203.765L431.072 203.761L431.073 203.757L431.073 203.754L431.073 203.75L431.074 203.746L431.074 203.742L431.075 203.738L431.075 203.734L431.075 203.73L431.076 203.726L431.076 203.722L431.076 203.718L431.077 203.714L431.077 203.71L431.077 203.706L431.078 203.702L431.078 203.698L431.078 203.695L431.079 203.691L431.079 203.687L431.08 203.683L431.08 203.679L431.08 203.675L431.081 203.671L431.081 203.667L431.081 203.663L431.082 203.659L431.082 203.655L431.082 203.651L431.083 203.647L431.083 203.643L431.083 203.639L431.084 203.636L431.084 203.632L431.085 203.628L431.085 203.624L431.085 203.62L431.086 203.616L431.086 203.612L431.086 203.608L431.087 203.604L431.087 203.6L431.087 203.596L431.088 203.592L431.088 203.588L431.088 203.584L431.089 203.58L431.089 203.576L431.09 203.573L431.09 203.569L431.09 203.565L431.091 203.561L431.091 203.557L431.091 203.553L431.092 203.549L431.092 203.545L431.092 203.541L431.093 203.537L431.093 203.533L431.093 203.529L431.094 203.525L431.094 203.521L431.095 203.517L431.095 203.514L431.095 203.51L431.096 203.506L431.096 203.502L431.096 203.498L431.097 203.494L431.097 203.49L431.097 203.486L431.098 203.482L431.098 203.478L431.098 203.474L431.099 203.47L431.099 203.466L431.1 203.462L431.1 203.458L431.1 203.455L431.101 203.451L431.101 203.447L431.101 203.443L431.102 203.439L431.102 203.435L431.102 203.431L431.103 203.427L431.103 203.423L431.104 203.419L431.104 203.415L431.104 203.411L431.105 203.407L431.105 203.403L431.105 203.399L431.106 203.396L431.106 203.392L431.106 203.388L431.107 203.384L431.107 203.38L431.107 203.376L431.108 203.372L431.108 203.368L431.109 203.364L431.109 203.36L431.109 203.356L431.11 203.352L431.11 203.348L431.11 203.344L431.111 203.34L431.111 203.337L431.111 203.333L431.112 203.329L431.112 203.325L431.112 203.321L431.113 203.317L431.113 203.313L431.114 203.309L431.114 203.305L431.114 203.301L431.115 203.297L431.115 203.293L431.115 203.289L431.116 203.285L431.116 203.281L431.116 203.278L431.117 203.274L431.117 203.27L431.117 203.266L431.118 203.262L431.118 203.258L431.119 203.254L431.119 203.25L431.119 203.246L431.12 203.242L431.12 203.238L431.12 203.234L431.121 203.23L431.121 203.226L431.121 203.222L431.122 203.219L431.122 203.215L431.122 203.211L431.123 203.207L431.123 203.203L431.124 203.199L431.124 203.195L431.124 203.191L431.125 203.187L431.125 203.183L431.125 203.179L431.126 203.175L431.126 203.171L431.126 203.167L431.127 203.163L431.127 203.16L431.127 203.156L431.128 203.152L431.128 203.148L431.129 203.144L431.129 203.14L431.129 203.136L431.13 203.132L431.13 203.128L431.13 203.124L431.131 203.12L431.131 203.116L431.131 203.112L431.132 203.108L431.132 203.104L431.132 203.1L431.133 203.097L431.133 203.093L431.134 203.089L431.134 203.085L431.134 203.081L431.135 203.077L431.135 203.073L431.135 203.069L431.136 203.065L431.136 203.061L431.136 203.057L431.137 203.053L431.137 203.049L431.137 203.045L431.138 203.041L431.138 203.038L431.139 203.034L431.139 203.03L431.139 203.026L431.14 203.022L431.14 203.018L431.14 203.014L431.141 203.01L431.141 203.006L431.141 203.002L431.142 202.998L431.142 202.994L431.142 202.99L431.143 202.986L431.143 202.982L431.144 202.979L431.144 202.975L431.144 202.971L431.145 202.967L431.145 202.963L431.145 202.959L431.146 202.955L431.146 202.951L431.146 202.947L431.147 202.943L431.147 202.939L431.147 202.935L431.148 202.931L431.148 202.927L431.149 202.923L431.149 202.92L431.149 202.916L431.15 202.912L431.15 202.908L431.15 202.904L431.151 202.9L431.151 202.896L431.151 202.892L431.152 202.888L431.152 202.884L431.152 202.88L431.153 202.876L431.153 202.872L431.154 202.868L431.154 202.864L431.154 202.861L431.155 202.857L431.155 202.853L431.155 202.849L431.156 202.845L431.156 202.841L431.156 202.837L431.157 202.833L431.157 202.829L431.158 202.825L431.158 202.821L431.158 202.817L431.159 202.813L431.159 202.809L431.159 202.805L431.16 202.802L431.16 202.798L431.16 202.794L431.161 202.79L431.161 202.786L431.161 202.782L431.162 202.778L431.162 202.774L431.163 202.77L431.163 202.766L431.163 202.762L431.164 202.758L431.164 202.754L431.164 202.75L431.165 202.746L431.165 202.743L431.165 202.739L431.166 202.735L431.166 202.731L431.166 202.727L431.167 202.723L431.167 202.719L431.168 202.715L431.168 202.711L431.168 202.707L431.169 202.703L431.169 202.699L431.169 202.695L431.17 202.691L431.17 202.687L431.17 202.683L431.171 202.68L431.171 202.676L431.171 202.672L431.172 202.668L431.172 202.664L431.173 202.66L431.173 202.656L431.173 202.652L431.174 202.648L431.174 202.644L431.174 202.64L431.175 202.636L431.175 202.632L431.175 202.628L431.176 202.624L431.176 202.621L431.176 202.617L431.177 202.613L431.177 202.609L431.178 202.605L431.178 202.601L431.178 202.597L431.179 202.593L431.179 202.589L431.179 202.585L431.18 202.581L431.18 202.577L431.18 202.573L431.181 202.569L431.181 202.565L431.181 202.562L431.182 202.558L431.182 202.554L431.183 202.55L431.183 202.546L431.183 202.542L431.184 202.538L431.184 202.534L431.184 202.53L431.185 202.526L431.185 202.522L431.185 202.518L431.186 202.514L431.186 202.51L431.186 202.506L431.187 202.503L431.187 202.499L431.188 202.495L431.188 202.491L431.188 202.487L431.189 202.483L431.189 202.479L431.189 202.475L431.19 202.471L431.19 202.467L431.19 202.463L431.191 202.459L431.191 202.455L431.191 202.451L431.192 202.447L431.192 202.444L431.193 202.44L431.193 202.436L431.193 202.432L431.194 202.428L431.194 202.424L431.194 202.42L431.195 202.416L431.195 202.412L431.195 202.408L431.196 202.404L431.196 202.4L431.196 202.396L431.197 202.392L431.197 202.388L431.198 202.385L431.198 202.381L431.198 202.377L431.199 202.373L431.199 202.369L431.199 202.365L431.2 202.361L431.2 202.357L431.2 202.353L431.201 202.349L431.201 202.345L431.201 202.341L431.202 202.337L431.202 202.333L431.203 202.329L431.203 202.326L431.203 202.322L431.204 202.318L431.204 202.314L431.204 202.31L431.205 202.306L431.205 202.302L431.205 202.298L431.206 202.294L431.206 202.29L431.206 202.286L431.207 202.282L431.207 202.278L431.208 202.274C431.237 201.947 431.26 201.621 431.281 201.316L431.286 201.249C431.309 200.919 431.331 200.616 431.359 200.332L431.365 200.27V200.208C431.365 199.338 430.957 198.623 430.332 198.108C430.38 198.092 430.427 198.076 430.475 198.059C430.755 197.959 431.076 197.812 431.348 197.579C431.639 197.33 431.945 196.911 431.945 196.332V196.317L431.945 196.302L431.701 186.09C431.695 185.552 431.452 185.085 431.056 184.766C430.713 184.489 430.311 184.367 429.994 184.303L429.749 185.529L429.994 184.303C429.424 184.189 428.826 184.153 428.237 184.19L428.203 184.192L428.169 184.196C427.542 184.27 426.982 184.418 426.493 184.606L426.455 184.621L426.418 184.638C426.161 184.757 425.865 184.922 425.619 185.168C425.348 185.439 425.112 185.84 425.112 186.353V186.372L425.112 186.391L425.417 196.478C425.42 196.781 425.493 197.088 425.65 197.366L419.799 197.548C420.422 197.266 421.006 196.902 421.527 196.484C422.268 195.892 422.849 195.196 423.34 194.388L423.344 194.381L423.348 194.374C423.85 193.526 424.14 192.556 424.248 191.552L424.25 191.53L424.251 191.508C424.323 190.512 424.219 189.545 423.911 188.658L423.9 188.627L423.887 188.596C423.546 187.762 423.048 187.032 422.397 186.419C421.744 185.805 420.98 185.35 420.119 185.05C419.312 184.77 418.44 184.584 417.481 184.584C416.531 184.584 415.603 184.766 414.766 185.045L414.752 185.05L414.738 185.055C413.857 185.372 413.063 185.803 412.336 186.384C411.582 186.987 411.001 187.723 410.545 188.494ZM416.227 191.671L416.227 191.655L416.228 191.638C416.254 190.74 416.453 190.241 416.657 189.971C416.914 189.665 417.073 189.648 417.145 189.648C417.147 189.648 417.149 189.648 417.151 189.648C417.196 189.647 417.293 189.646 417.463 189.892C417.592 190.118 417.718 190.591 417.641 191.481C417.561 192.215 417.384 192.748 417.177 193.086C417.067 193.266 416.982 193.312 416.779 193.312C416.725 193.312 416.695 193.302 416.667 193.288C416.635 193.272 416.567 193.227 416.473 193.11L416.445 193.074L416.413 193.04C416.404 193.03 416.338 192.952 416.284 192.718C416.231 192.484 416.2 192.143 416.227 191.671Z" fill="white" stroke="black" stroke-width="2.50001"/>
<path d="M401.726 194.85L401.659 194.761L401.578 194.685L400.383 193.572C400.88 193.78 401.424 193.803 401.967 193.697L403.528 193.583L403.719 198.275L403.721 198.312L403.724 198.349C403.736 198.465 403.758 198.579 403.79 198.69C403.427 198.645 403.058 198.622 402.679 198.622C401.76 198.622 400.849 198.763 400.01 199.008L399.987 199.015L399.965 199.022C399.154 199.292 398.365 199.645 397.629 200.16C396.88 200.685 396.281 201.323 395.802 202.06C395.296 202.839 394.994 203.718 394.88 204.672C394.732 205.59 394.807 206.464 395.091 207.274C395.368 208.065 395.814 208.766 396.469 209.344C397.102 209.933 397.841 210.35 398.713 210.641C399.596 210.935 400.557 211.071 401.611 211.071C402.464 211.071 403.359 210.97 404.242 210.679C405.095 210.427 405.913 210.035 406.631 209.533C407.381 209.008 407.968 208.378 408.464 207.669L408.476 207.652L408.488 207.634C408.999 206.847 409.295 205.97 409.438 205.037L409.441 205.019L409.443 205.002C409.561 204.061 409.443 203.207 409.119 202.399C408.791 201.577 408.269 200.912 407.685 200.364L407.669 200.349L407.653 200.335C407.59 200.28 407.525 200.226 407.459 200.173C407.901 200.119 408.323 200.018 408.74 199.872C409.029 199.786 409.352 199.651 409.63 199.423C409.94 199.168 410.246 198.742 410.246 198.163V198.146L410.246 198.128L409.911 186.147C409.903 185.578 409.607 185.158 409.321 184.901C409.042 184.65 408.71 184.489 408.41 184.382L407.989 185.559L408.41 184.382C407.804 184.166 407.163 184.096 406.555 184.096H406.482L406.409 184.104C405.782 184.178 405.223 184.327 404.733 184.515L404.695 184.529L404.658 184.547C404.223 184.747 403.352 185.233 403.352 186.292V186.304L403.352 186.316L403.39 188.285L401.327 188.401L401.324 188.401C401.27 188.404 401.215 188.409 401.159 188.415C401.158 188.338 401.152 188.26 401.142 188.182L399.902 188.337L401.142 188.182C401.096 187.811 401.003 187.499 400.889 187.196L400.844 187.074L400.774 186.964C400.515 186.558 400.2 186.156 399.817 185.815L399.793 185.794L399.767 185.774C399.316 185.412 398.713 185.103 397.979 185.103H397.938L397.896 185.106L389.687 185.655L389.625 185.659L389.565 185.669C388.929 185.775 388.321 186.088 387.94 186.738C387.602 187.267 387.487 187.867 387.585 188.475C387.655 189.093 387.941 189.65 388.4 190.078C389.008 190.718 389.853 190.853 390.61 190.769L390.611 190.769L392.73 190.532C392.356 191.029 391.954 191.537 391.549 192.031L391.541 192.042L391.532 192.052C391.187 192.493 390.843 192.906 390.488 193.332C390.289 193.569 390.088 193.811 389.882 194.063C389.394 194.627 388.952 195.124 388.527 195.601C388.463 195.674 388.399 195.746 388.335 195.818C388.047 196.121 387.885 196.501 387.859 196.904C387.834 197.289 387.937 197.627 388.048 197.877C388.266 198.369 388.616 198.758 389.025 199.062C389.526 199.538 390.127 199.872 390.847 199.977C391.236 200.049 391.65 200.043 392.062 199.908C392.489 199.769 392.834 199.517 393.106 199.218L393.127 199.195L393.146 199.172L395.212 196.663C395.413 196.851 395.623 197.029 395.839 197.197C396.36 197.602 396.876 197.998 397.373 198.343C397.671 198.614 398.02 198.807 398.414 198.891C398.935 199.034 399.389 198.919 399.657 198.83L399.261 197.644L399.657 198.83C400.003 198.715 400.278 198.545 400.532 198.34C400.793 198.156 401.003 197.945 401.156 197.792C401.165 197.783 401.174 197.774 401.183 197.765L401.212 197.736L401.24 197.705C401.529 197.374 401.772 197.003 401.927 196.588L401.952 196.521L401.969 196.452C402.04 196.171 402.188 195.466 401.726 194.85ZM398.971 192.036C399.013 192.163 399.066 192.286 399.128 192.404L398.871 192.165L398.971 192.036ZM401.424 205.119L401.425 205.097L401.426 205.074C401.448 204.448 401.614 204.149 401.748 204.006C401.97 203.806 402.158 203.747 402.344 203.747C402.47 203.747 402.537 203.78 402.606 203.878C402.747 204.111 402.85 204.447 402.835 204.941C402.791 205.34 402.679 205.608 402.497 205.836L402.484 205.851L402.473 205.867C402.376 205.995 402.285 206.069 401.977 206.069C401.907 206.069 401.866 206.064 401.843 206.06C401.822 206.057 401.81 206.053 401.798 206.048L401.706 206.008L401.667 205.998C401.664 205.996 401.661 205.994 401.658 205.991C401.639 205.974 401.614 205.95 401.579 205.916L400.696 206.8L401.579 205.916C401.565 205.902 401.558 205.892 401.55 205.878C401.541 205.862 401.521 205.822 401.496 205.739L401.473 205.663L401.442 205.593C401.442 205.593 401.431 205.563 401.424 205.489C401.414 205.402 401.412 205.281 401.424 205.119Z" fill="white" stroke="black" stroke-width="2.50001"/>
<path d="M370.333 198.927C369.851 198.934 369.384 199.111 369.019 199.476C368.864 199.632 368.636 199.889 368.482 200.221C368.354 200.448 368.259 200.686 368.202 200.912L368.195 200.94L368.189 200.97C368.164 201.093 368.151 201.198 368.143 201.281C368.139 201.322 368.137 201.358 368.136 201.388C368.135 201.403 368.135 201.416 368.135 201.428L368.134 201.445L368.134 201.452L368.134 201.456L368.134 201.457L368.134 201.458L368.134 201.458C368.134 201.459 368.134 201.459 369.384 201.459H368.134V201.484C368.134 202.06 368.134 202.6 368.165 203.115C368.166 203.602 368.195 204.06 368.223 204.499C368.225 204.529 368.226 204.559 368.228 204.589C368.257 205.055 368.312 205.545 368.366 206.023C368.373 206.084 368.379 206.145 368.386 206.205C368.449 206.775 368.543 207.398 368.664 208.072C368.717 208.563 368.881 209.102 369.324 209.545C369.603 209.824 369.963 210.091 370.41 210.259C370.791 210.402 371.215 210.479 371.621 210.516C372.014 210.552 372.428 210.552 372.803 210.552H372.833H372.833C373.14 210.552 373.641 210.552 374.326 210.521C374.934 210.521 375.59 210.494 376.266 210.467C376.328 210.464 376.391 210.462 376.453 210.459L376.455 210.459C377.214 210.428 377.968 210.365 378.692 210.304L378.704 210.303L378.709 210.303C379.396 210.243 380.046 210.178 380.558 210.069C381.487 209.889 382.33 209.538 382.933 208.935C383.573 208.294 383.826 207.49 383.904 206.674L383.909 206.623L383.909 206.572L383.97 202.117L383.971 202.052L383.965 201.987C383.887 201.122 383.602 200.281 383.006 199.586C383.098 199.529 383.187 199.463 383.273 199.387C383.594 199.102 383.849 198.672 383.849 198.132V198.123L383.848 198.114L383.805 195.121L385.819 194.988C386.553 194.977 387.296 194.712 387.817 194.061C388.156 193.636 388.487 193.061 388.487 192.304C388.487 191.564 388.145 190.987 387.817 190.577L387.796 190.551L387.775 190.527C387.276 189.966 386.591 189.68 385.833 189.68H385.782L385.731 189.684L383.733 189.849L383.665 186.094C383.661 185.572 383.435 185.117 383.076 184.794C382.746 184.496 382.35 184.349 382.006 184.276L381.998 184.274L381.989 184.272C381.414 184.157 380.793 184.118 380.133 184.196C379.503 184.27 378.953 184.418 378.455 184.596L378.418 184.609L378.383 184.624C378.111 184.74 377.8 184.903 377.544 185.15C377.257 185.426 377.015 185.834 377.015 186.353V186.372L377.016 186.391L377.381 198.278C377.383 198.411 377.398 198.544 377.427 198.675L370.333 198.927ZM376.035 188.015L376.03 187.885L375.999 187.758C375.921 187.446 375.772 186.987 375.441 186.59L375.405 186.546L375.365 186.506C375.065 186.207 374.763 186.012 374.429 185.845L374.371 185.816L374.309 185.792C373.961 185.662 373.597 185.585 373.292 185.524C372.912 185.448 372.524 185.408 372.161 185.408C372.033 185.408 371.885 185.416 371.765 185.422C371.747 185.423 371.729 185.424 371.712 185.425C371.568 185.432 371.426 185.438 371.276 185.438C371.065 185.438 370.85 185.446 370.65 185.453C370.637 185.453 370.624 185.454 370.611 185.454C370.393 185.462 370.184 185.469 369.964 185.469C369.7 185.469 369.44 185.477 369.201 185.484L369.193 185.485C368.945 185.492 368.721 185.499 368.499 185.499H368.463L368.426 185.501C368.398 185.503 368.371 185.505 368.344 185.506C367.846 185.536 367.427 185.56 367.065 185.56C366.81 185.56 366.575 185.569 366.379 185.577C366.361 185.577 366.343 185.578 366.325 185.579C366.146 185.586 366.016 185.591 365.905 185.591H365.903H365.901H365.899H365.897H365.895H365.894H365.892H365.89H365.888H365.886H365.884H365.882H365.88H365.878H365.876H365.874H365.872H365.87H365.868H365.867H365.865H365.863H365.861H365.859H365.857H365.855H365.853H365.851H365.849H365.848H365.846H365.844H365.842H365.84H365.838H365.836H365.834H365.833H365.831H365.829H365.827H365.825H365.823H365.821H365.82H365.818H365.816H365.814H365.812H365.81H365.809H365.807H365.805H365.803H365.801H365.799H365.798H365.796H365.794H365.792H365.79H365.789H365.787H365.785H365.783H365.781H365.78H365.778H365.776H365.774H365.773H365.771H365.769H365.767H365.766H365.764H365.762H365.76H365.759H365.757H365.755H365.753H365.752H365.75H365.748H365.746H365.745H365.743H365.741H365.739H365.738H365.736H365.734H365.733H365.731H365.729H365.727H365.726H365.724H365.722H365.721H365.719H365.717H365.716H365.714H365.712H365.711H365.709H365.707H365.706H365.704H365.702H365.701H365.699H365.697H365.696H365.694H365.692H365.691H365.689H365.687H365.686H365.684H365.682H365.681H365.679H365.678H365.676H365.674H365.673H365.671H365.669H365.668H365.666H365.665H365.663H365.661H365.66H365.658H365.657H365.655H365.653H365.652H365.65H365.649H365.647H365.646H365.644H365.642H365.641H365.639H365.638H365.636H365.635H365.633H365.632H365.63H365.628H365.627H365.625H365.624H365.622H365.621H365.619H365.618H365.616H365.615H365.613H365.612H365.61H365.609H365.607H365.606H365.604H365.603H365.601H365.6H365.598H365.597H365.595H365.594H365.592H365.591H365.589H365.588H365.586H365.585H365.583H365.582H365.58H365.579H365.578H365.576H365.575H365.573H365.572H365.57H365.569H365.567H365.566H365.565H365.563H365.562H365.56H365.559H365.557H365.556H365.555H365.553H365.552H365.55H365.549H365.548H365.546H365.545H365.543H365.542H365.541H365.539H365.538H365.536H365.535H365.534H365.532H365.531H365.529H365.528H365.527H365.525H365.524H365.523H365.521H365.52H365.519H365.517H365.516H365.515H365.513H365.512H365.511H365.509H365.508H365.507H365.505H365.504H365.503H365.501H365.5H365.499H365.497H365.496H365.495H365.493H365.492H365.491H365.489H365.488H365.487H365.486H365.484H365.483H365.482H365.48H365.479H365.478H365.477H365.475H365.474H365.473H365.472H365.47H365.469H365.468H365.467H365.465H365.464H365.463H365.462H365.46H365.459H365.458H365.457H365.455H365.454H365.453H365.452H365.45H365.449H365.448H365.447H365.446H365.444H365.443H365.442H365.441H365.44H365.438H365.437H365.436H365.435H365.434H365.432H365.431H365.43H365.429H365.428H365.427H365.425H365.424H365.423H365.422H365.421H365.42H365.418H365.417H365.416H365.415H365.414H365.413H365.411H365.41H365.409H365.408H365.407H365.406H365.405H365.404H365.402H365.401H365.4H365.399H365.398H365.397H365.396H365.395H365.393H365.392H365.391H365.39H365.389H365.388H365.387H365.386H365.385H365.384H365.383H365.381H365.38H365.379H365.378H365.377H365.376H365.375H365.374H365.373H365.372H365.371H365.37H365.369H365.368H365.367H365.366H365.364H365.363H365.362H365.361H365.36H365.359H365.358H365.357H365.356H365.355H365.354H365.353H365.352H365.351H365.35H365.349H365.348H365.347H365.346H365.345H365.344H365.343H365.342H365.341H365.34H365.339H365.338H365.337H365.336H365.335H365.334H365.333H365.332H365.331H365.33H365.329H365.328H365.327H365.327H365.326H365.325H365.324H365.323H365.322H365.321H365.32H365.319H365.318H365.317H365.316H365.315H365.314H365.313H365.312H365.311H365.311H365.31H365.309H365.308H365.307H365.306H365.305H365.304H365.303H365.302H365.302H365.301H365.3H365.299H365.298H365.297H365.296H365.295H365.294H365.294H365.293H365.292H365.291H365.29H365.289H365.288H365.287H365.287H365.286H365.285H365.284H365.283H365.282H365.281H365.281H365.28H365.279H365.278H365.277H365.276H365.276H365.275H365.274H365.273H365.272H365.271H365.271H365.27H365.269H365.268H365.267H365.267H365.266H365.265H365.264H365.263H365.263H365.262H365.261H365.26H365.259H365.259H365.258H365.257H365.256H365.256H365.255H365.254H365.253H365.252H365.252H365.251H365.25H365.249H365.249H365.248H365.247H365.246H365.246H365.245H365.244H365.243H365.243H365.242H365.241H365.24H365.24H365.239H365.238H365.237H365.237H365.236H365.235H365.235H365.234H365.156L365.079 185.6C364.429 185.682 363.723 185.911 363.201 186.499C362.765 186.989 362.514 187.634 362.614 188.335C362.649 189.033 362.987 189.597 363.404 190.014L364.288 189.13L363.404 190.014C363.98 190.589 364.728 190.797 365.514 190.712L369.458 190.551L369.815 196.739L369.816 196.755L369.817 196.771C369.856 197.237 370.047 197.671 370.396 198.008C370.716 198.318 371.098 198.479 371.421 198.571C372.076 198.758 372.727 198.745 373.36 198.635C373.975 198.55 374.523 198.348 375.024 198.099C375.601 197.828 376.341 197.255 376.341 196.24V196.217L376.34 196.194L376.035 188.015ZM374.861 205.342L374.84 205.345C374.772 204.797 374.754 204.338 374.754 203.931V203.856L377.503 203.76V205.191L374.929 205.338L374.861 205.342Z" fill="white" stroke="black" stroke-width="2.50001"/>
<path d="M347.659 190.523L347.926 186.746L347.929 186.702V186.658C347.929 186.087 347.638 185.666 347.38 185.408C347.114 185.142 346.817 184.978 346.597 184.869L346.518 184.829L346.434 184.801C346.213 184.727 345.967 184.657 345.701 184.591C345.4 184.516 345.076 184.476 344.861 184.45C344.835 184.447 344.812 184.444 344.79 184.441L344.712 184.431H344.634C344.05 184.431 343.433 184.462 342.817 184.626C342.24 184.78 341.297 185.213 341.166 186.259L341.161 186.302L341.159 186.346L340.792 193.121L340.79 193.155V193.189C340.79 193.669 340.924 194.236 341.401 194.714C341.624 194.937 341.956 195.236 342.421 195.448C342.728 195.6 343.136 195.764 343.606 195.851C343.96 195.921 344.437 195.978 344.933 195.897L352.049 195.598C352.843 195.591 353.613 195.281 354.125 194.641C354.516 194.152 354.765 193.579 354.765 192.884C354.765 192.291 354.592 191.675 354.114 191.138L353.179 191.968L354.114 191.138C353.588 190.547 352.854 190.291 352.111 190.291H352.078L352.046 190.293L347.659 190.523ZM340.973 196.578L340.899 196.58L340.826 196.59C340.157 196.686 339.513 196.97 339.078 197.622L339.061 197.647L339.046 197.673C338.748 198.17 338.598 198.745 338.688 199.353C338.716 199.964 338.957 200.507 339.346 200.954C339.596 201.258 339.921 201.503 340.321 201.645C340.697 201.779 341.077 201.8 341.432 201.761L353.841 201.397C354.617 201.392 355.326 201.126 355.844 200.496C356.247 200.032 356.505 199.449 356.505 198.804V198.742L356.498 198.68C356.442 198.116 356.214 197.563 355.792 197.089L355.768 197.061L355.742 197.035C355.258 196.551 354.602 196.272 353.851 196.272H353.836L353.821 196.273L340.973 196.578ZM342.942 212.111C343.317 212.295 343.735 212.412 344.136 212.485C344.515 212.554 344.991 212.61 345.51 212.529L347.407 212.443L347.415 212.443L347.423 212.442L353.159 212.108C353.888 212.099 354.605 211.842 355.121 211.262C355.479 210.859 355.833 210.27 355.833 209.546C355.833 208.899 355.572 208.279 355.101 207.808C354.524 207.231 353.731 207.067 353.026 207.108L348.231 207.297L348.445 204.013L348.448 203.972V203.931C348.448 203.478 348.283 203.061 347.984 202.727C347.715 202.427 347.379 202.239 347.08 202.111C346.497 201.861 345.907 201.751 345.369 201.684L345.292 201.674H345.214C345.037 201.674 344.867 201.684 344.738 201.691L344.735 201.691C344.591 201.699 344.5 201.704 344.421 201.704H344.343L344.266 201.714C344.253 201.716 344.239 201.717 344.224 201.719C344.021 201.744 343.681 201.786 343.382 201.882C343.061 201.976 342.667 202.147 342.347 202.467C342.064 202.75 341.815 203.156 341.798 203.692L341.375 209.707C341.321 210.221 341.443 210.817 341.875 211.297C342.18 211.691 342.565 211.941 342.942 212.111Z" fill="white" stroke="black" stroke-width="2.50001"/>
<path d="M325.685 186.716L325.658 186.699L325.63 186.685C324.935 186.313 324.123 186.165 323.249 186.203C323.249 186.203 323.249 186.203 323.248 186.203L315.926 186.508L315.916 186.508L315.905 186.509C315.179 186.552 314.45 186.782 313.915 187.384L313.893 187.409L313.873 187.434C313.456 187.955 313.249 188.556 313.295 189.218C313.308 189.857 313.557 190.438 314.011 190.913C314.583 191.586 315.386 191.771 316.142 191.689L320.145 191.492L318.559 201.352L318.543 201.451V201.551C318.543 201.924 318.64 202.305 318.866 202.649C319.08 202.974 319.367 203.205 319.66 203.368C320.142 203.652 320.699 203.809 321.25 203.885C321.898 203.997 322.589 204.002 323.27 203.832C323.615 203.746 323.997 203.601 324.33 203.331C324.689 203.04 324.925 202.657 325.034 202.22L325.047 202.171L325.055 202.12L327.191 189.119L327.208 189.019V188.917C327.208 188.334 326.891 187.865 326.731 187.641C326.447 187.244 326.084 186.955 325.685 186.716ZM327.576 186.658V186.675L327.577 186.691L328.065 205.356C328.069 205.808 328.228 206.268 328.591 206.631C328.914 206.955 329.31 207.111 329.651 207.189C330.256 207.355 330.9 207.383 331.558 207.31L331.578 207.308L331.597 207.305C332.065 207.238 332.578 207.133 333.082 206.944C333.358 206.855 333.681 206.713 333.956 206.468C334.277 206.182 334.532 205.753 334.532 205.213V205.204L334.532 205.195L334.397 196.054L336.357 195.904C337.103 195.892 337.851 195.636 338.378 194.977C338.718 194.552 339.049 193.977 339.049 193.22C339.049 192.48 338.706 191.903 338.378 191.493L338.358 191.467L338.336 191.443C337.837 190.882 337.152 190.596 336.395 190.596H336.355L336.315 190.599L334.297 190.729L334.227 186.462C334.222 185.867 333.903 185.435 333.582 185.179C333.285 184.941 332.939 184.807 332.649 184.724L332.305 185.926L332.649 184.724C332.05 184.553 331.42 184.523 330.871 184.523H330.802L330.733 184.531C330.124 184.599 329.564 184.706 329.016 184.901L329.437 186.078L329.016 184.901C328.73 185.004 328.388 185.161 328.105 185.433C327.779 185.746 327.576 186.171 327.576 186.658Z" fill="white" stroke="black" stroke-width="2.50001"/>
<path d="M288.058 194.397L288.058 194.4C287.992 195.554 288.054 196.632 288.307 197.643C288.555 198.634 288.959 199.54 289.581 200.318C290.165 201.047 290.896 201.679 291.847 202.082C292.752 202.508 293.761 202.679 294.799 202.679C295.733 202.679 296.653 202.491 297.552 202.132C298.472 201.764 299.317 201.212 300.047 200.482C300.777 199.752 301.338 198.898 301.807 197.96L301.815 197.943L301.823 197.927C302.291 196.917 302.57 195.784 302.639 194.54C302.708 193.307 302.571 192.19 302.288 191.198L302.282 191.178L302.276 191.159C301.957 190.167 301.49 189.298 300.902 188.563L300.881 188.536L300.858 188.51C300.23 187.809 299.476 187.238 298.593 186.855C297.763 186.494 296.861 186.263 295.867 186.263C294.884 186.263 293.927 186.489 293.067 186.847L293.056 186.852L293.044 186.857C292.138 187.256 291.338 187.802 290.619 188.521C289.904 189.236 289.301 190.09 288.844 191.076L289.977 191.602L288.844 191.076C288.367 192.103 288.126 193.24 288.058 194.397ZM294.614 194.706L294.614 194.693L294.614 194.68C294.643 193.33 294.867 192.453 295.162 191.899C295.297 191.659 295.411 191.521 295.489 191.447C295.538 191.519 295.603 191.638 295.672 191.823C295.899 192.437 296.021 193.358 296.021 194.654C296.021 195.169 295.971 195.664 295.893 196.112C295.774 196.618 295.68 196.932 295.573 197.147C295.463 197.368 295.32 197.541 295.202 197.645C295.159 197.602 295.095 197.516 295.002 197.33C294.894 197.115 294.8 196.82 294.72 196.341L294.713 196.3L294.704 196.26C294.619 195.901 294.585 195.39 294.614 194.706ZM295.574 191.38C295.574 191.38 295.573 191.38 295.573 191.381L295.574 191.38ZM302.765 186.658V186.675L302.766 186.691L303.254 205.356C303.258 205.808 303.417 206.268 303.78 206.631C304.104 206.955 304.5 207.111 304.84 207.189C305.445 207.355 306.089 207.383 306.747 207.31L306.767 207.308L306.786 207.305C307.254 207.238 307.767 207.133 308.271 206.944C308.548 206.855 308.87 206.713 309.145 206.468C309.466 206.182 309.721 205.753 309.721 205.213V205.204L309.721 205.195L309.586 196.054L311.546 195.904C312.292 195.892 313.04 195.636 313.567 194.977C313.907 194.552 314.238 193.977 314.238 193.22C314.238 192.48 313.895 191.903 313.567 191.493L313.547 191.467L313.525 191.443C313.027 190.882 312.341 190.596 311.584 190.596H311.544L311.504 190.599L309.486 190.729L309.416 186.462C309.411 185.867 309.092 185.435 308.771 185.179C308.474 184.941 308.128 184.807 307.838 184.724L307.494 185.926L307.838 184.724C307.239 184.553 306.609 184.523 306.06 184.523H305.991L305.922 184.531C305.313 184.599 304.753 184.706 304.205 184.901C303.919 185.004 303.577 185.161 303.294 185.433C302.968 185.746 302.765 186.171 302.765 186.658Z" fill="white" stroke="black" stroke-width="2.50001"/>
<path d="M267.12 196.607L266.681 197.777C267.588 198.117 268.568 198.253 269.592 198.253C270.083 198.253 270.573 198.21 271.06 198.125C270.945 198.214 270.835 198.316 270.732 198.431L270.711 198.455L270.691 198.481C270.26 199.019 270.081 199.603 270.081 200.208C270.081 200.869 270.328 201.455 270.743 201.931C271.334 202.647 272.192 202.812 272.942 202.737L272.977 202.736C272.365 202.878 271.797 203.14 271.341 203.559C270.731 204.118 270.386 204.843 270.386 205.701L270.386 205.721C270.386 206.021 270.386 206.467 270.462 206.959L270.465 206.978C270.524 207.363 270.591 207.798 270.693 208.24C270.787 208.647 270.889 209.06 271.03 209.484C271.144 209.826 271.281 210.169 271.473 210.484C271.701 211.133 272.128 211.66 272.732 212.011C273.363 212.378 274.101 212.505 274.841 212.505C276.096 212.505 277.294 212.408 278.464 212.213L278.47 212.212C279.56 212.025 280.626 211.806 281.634 211.555C282.352 211.386 282.961 210.951 283.293 210.237C283.572 209.667 283.622 209.053 283.513 208.507L283.509 208.489L283.505 208.472C283.344 207.773 282.951 207.204 282.393 206.813L282.371 206.797L282.348 206.782C282.274 206.736 282.2 206.694 282.125 206.655C282.405 206.557 282.674 206.432 282.919 206.273C283.636 205.841 283.996 205.178 284.171 204.478L284.194 204.384L284.203 204.288L284.204 204.284L284.204 204.28L284.204 204.276L284.205 204.272L284.205 204.268L284.205 204.264L284.206 204.261L284.206 204.257L284.206 204.253L284.207 204.249L284.207 204.245L284.207 204.241L284.208 204.237L284.208 204.233L284.209 204.229L284.209 204.225L284.209 204.221L284.21 204.217L284.21 204.213L284.21 204.209L284.211 204.205L284.211 204.202L284.211 204.198L284.212 204.194L284.212 204.19L284.212 204.186L284.213 204.182L284.213 204.178L284.214 204.174L284.214 204.17L284.214 204.166L284.215 204.162L284.215 204.158L284.215 204.154L284.216 204.15L284.216 204.146L284.216 204.143L284.217 204.139L284.217 204.135L284.217 204.131L284.218 204.127L284.218 204.123L284.219 204.119L284.219 204.115L284.219 204.111L284.22 204.107L284.22 204.103L284.22 204.099L284.221 204.095L284.221 204.091L284.221 204.087L284.222 204.084L284.222 204.08L284.222 204.076L284.223 204.072L284.223 204.068L284.224 204.064L284.224 204.06L284.224 204.056L284.225 204.052L284.225 204.048L284.225 204.044L284.226 204.04L284.226 204.036L284.226 204.032L284.227 204.028L284.227 204.025L284.227 204.021L284.228 204.017L284.228 204.013L284.229 204.009L284.229 204.005L284.229 204.001L284.23 203.997L284.23 203.993L284.23 203.989L284.231 203.985L284.231 203.981L284.231 203.977L284.232 203.973L284.232 203.969L284.232 203.966L284.233 203.962L284.233 203.958L284.234 203.954L284.234 203.95L284.234 203.946L284.235 203.942L284.235 203.938L284.235 203.934L284.236 203.93L284.236 203.926L284.236 203.922L284.237 203.918L284.237 203.914L284.238 203.91L284.238 203.907L284.238 203.903L284.239 203.899L284.239 203.895L284.239 203.891L284.24 203.887L284.24 203.883L284.24 203.879L284.241 203.875L284.241 203.871L284.241 203.867L284.242 203.863L284.242 203.859L284.243 203.855L284.243 203.851L284.243 203.847L284.244 203.844L284.244 203.84L284.244 203.836L284.245 203.832L284.245 203.828L284.245 203.824L284.246 203.82L284.246 203.816L284.246 203.812L284.247 203.808L284.247 203.804L284.248 203.8L284.248 203.796L284.248 203.792L284.249 203.788L284.249 203.785L284.249 203.781L284.25 203.777L284.25 203.773L284.25 203.769L284.251 203.765L284.251 203.761L284.251 203.757L284.252 203.753L284.252 203.749L284.253 203.745L284.253 203.741L284.253 203.737L284.254 203.733L284.254 203.729L284.254 203.726L284.255 203.722L284.255 203.718L284.255 203.714L284.256 203.71L284.256 203.706L284.256 203.702L284.257 203.698L284.257 203.694L284.258 203.69L284.258 203.686L284.258 203.682L284.259 203.678L284.259 203.674L284.259 203.67L284.26 203.667L284.26 203.663L284.26 203.659L284.261 203.655L284.261 203.651L284.261 203.647L284.262 203.643L284.262 203.639L284.263 203.635L284.263 203.631L284.263 203.627L284.264 203.623L284.264 203.619L284.264 203.615L284.265 203.611L284.265 203.608L284.265 203.604L284.266 203.6L284.266 203.596L284.266 203.592L284.267 203.588L284.267 203.584L284.268 203.58L284.268 203.576L284.268 203.572L284.269 203.568L284.269 203.564L284.269 203.56L284.27 203.556L284.27 203.552L284.27 203.549L284.271 203.545L284.271 203.541L284.271 203.537L284.272 203.533L284.272 203.529L284.273 203.525L284.273 203.521L284.273 203.517L284.274 203.513L284.274 203.509L284.274 203.505L284.275 203.501L284.275 203.497L284.275 203.493L284.276 203.49L284.276 203.486L284.276 203.482L284.277 203.478L284.277 203.474L284.278 203.47L284.278 203.466L284.278 203.462L284.279 203.458L284.279 203.454L284.279 203.45L284.28 203.446L284.28 203.442L284.28 203.438L284.281 203.434L284.281 203.431L284.281 203.427L284.282 203.423L284.282 203.419L284.283 203.415L284.283 203.411L284.283 203.407L284.284 203.403L284.284 203.399L284.284 203.395L284.285 203.391L284.285 203.387L284.285 203.383L284.286 203.379L284.286 203.375L284.287 203.371L284.287 203.368L284.287 203.364L284.288 203.36L284.288 203.356L284.288 203.352L284.289 203.348L284.289 203.344L284.289 203.34L284.29 203.336L284.29 203.332L284.29 203.328L284.291 203.324L284.291 203.32L284.292 203.316L284.292 203.312L284.292 203.309L284.293 203.305L284.293 203.301L284.293 203.297L284.294 203.293L284.294 203.289L284.294 203.285L284.295 203.281L284.295 203.277L284.295 203.273L284.296 203.269L284.296 203.265L284.297 203.261L284.297 203.257L284.297 203.253L284.298 203.25L284.298 203.246L284.298 203.242L284.299 203.238L284.299 203.234L284.299 203.23L284.3 203.226L284.3 203.222L284.3 203.218L284.301 203.214L284.301 203.21L284.302 203.206L284.302 203.202L284.302 203.198L284.303 203.194L284.303 203.191L284.303 203.187L284.304 203.183L284.304 203.179L284.304 203.175L284.305 203.171L284.305 203.167L284.305 203.163L284.306 203.159L284.306 203.155L284.307 203.151L284.307 203.147L284.307 203.143L284.308 203.139L284.308 203.135L284.308 203.132L284.309 203.128L284.309 203.124L284.309 203.12L284.31 203.116L284.31 203.112L284.31 203.108L284.311 203.104L284.311 203.1L284.312 203.096L284.312 203.092L284.312 203.088L284.313 203.084L284.313 203.08L284.313 203.076L284.314 203.073L284.314 203.069L284.314 203.065L284.315 203.061L284.315 203.057L284.315 203.053L284.316 203.049L284.316 203.045L284.317 203.041L284.317 203.037L284.317 203.033L284.318 203.029L284.318 203.025L284.318 203.021L284.319 203.017L284.319 203.014L284.319 203.01L284.32 203.006L284.32 203.002L284.32 202.998L284.321 202.994L284.321 202.99L284.322 202.986L284.322 202.982L284.322 202.978L284.323 202.974L284.323 202.97L284.323 202.966L284.324 202.962L284.324 202.958L284.324 202.954L284.325 202.951L284.325 202.947L284.325 202.943L284.326 202.939L284.326 202.935L284.327 202.931L284.327 202.927L284.327 202.923L284.328 202.919L284.328 202.915L284.328 202.911L284.329 202.907L284.329 202.903L284.329 202.899L284.33 202.895L284.33 202.892L284.33 202.888L284.331 202.884L284.331 202.88L284.332 202.876L284.332 202.872L284.332 202.868L284.333 202.864L284.333 202.86L284.333 202.856L284.334 202.852L284.334 202.848L284.334 202.844L284.335 202.84L284.335 202.836L284.335 202.833L284.336 202.829L284.336 202.825L284.337 202.821L284.337 202.817L284.337 202.813L284.338 202.809L284.338 202.805L284.338 202.801L284.339 202.797L284.339 202.793L284.339 202.789L284.34 202.785L284.34 202.781L284.341 202.777L284.341 202.774L284.341 202.77L284.342 202.766L284.342 202.762L284.342 202.758L284.343 202.754L284.343 202.75L284.343 202.746L284.344 202.742L284.344 202.738L284.344 202.734L284.345 202.73L284.345 202.726L284.346 202.722L284.346 202.718L284.346 202.715L284.347 202.711L284.347 202.707L284.347 202.703L284.348 202.699L284.348 202.695L284.348 202.691L284.349 202.687L284.349 202.683L284.349 202.679L284.35 202.675L284.35 202.671L284.351 202.667L284.351 202.663L284.351 202.659L284.352 202.656L284.352 202.652L284.352 202.648L284.353 202.644L284.353 202.64L284.353 202.636L284.354 202.632L284.354 202.628L284.354 202.624L284.355 202.62L284.355 202.616L284.356 202.612L284.356 202.608L284.356 202.604L284.357 202.6L284.357 202.597L284.357 202.593L284.358 202.589L284.358 202.585L284.358 202.581L284.359 202.577L284.359 202.573L284.359 202.569L284.36 202.565L284.36 202.561L284.361 202.557L284.361 202.553L284.361 202.549L284.362 202.545L284.362 202.541L284.362 202.538L284.363 202.534L284.363 202.53L284.363 202.526L284.364 202.522L284.364 202.518L284.364 202.514L284.365 202.51L284.365 202.506L284.366 202.502L284.366 202.498L284.366 202.494L284.367 202.49L284.367 202.486L284.367 202.482L284.368 202.478L284.368 202.475L284.368 202.471L284.369 202.467L284.369 202.463L284.369 202.459L284.37 202.455L284.37 202.451L284.371 202.447L284.371 202.443L284.371 202.439L284.372 202.435L284.372 202.431L284.372 202.427L284.373 202.423L284.373 202.419L284.373 202.416L284.374 202.412L284.374 202.408L284.374 202.404L284.375 202.4L284.375 202.396L284.376 202.392L284.376 202.388L284.376 202.384L284.377 202.38L284.377 202.376L284.377 202.372L284.378 202.368L284.378 202.364L284.378 202.36L284.379 202.357L284.379 202.353L284.379 202.349L284.38 202.345L284.38 202.341L284.381 202.337L284.381 202.333L284.381 202.329L284.382 202.325L284.382 202.321L284.382 202.317L284.383 202.313L284.383 202.309L284.383 202.305L284.384 202.301L284.384 202.298L284.384 202.294L284.385 202.29L284.385 202.286L284.386 202.282L284.386 202.278L284.386 202.274C284.416 201.946 284.439 201.62 284.46 201.315L284.465 201.248C284.488 200.918 284.509 200.616 284.538 200.332L284.544 200.27V200.208C284.544 199.231 284.028 198.448 283.27 197.926L283.266 197.924C283.457 197.83 283.656 197.708 283.834 197.543C284.135 197.264 284.391 196.843 284.391 196.301H284.391L284.391 196.289L284.373 194.41L286.349 194.316C287.154 194.307 287.873 193.967 288.359 193.359C288.699 192.934 289.03 192.359 289.03 191.602C289.03 190.844 288.699 190.269 288.359 189.844L288.339 189.819L288.318 189.795C287.819 189.234 287.134 188.948 286.376 188.948H286.324L286.272 188.952L284.293 189.117L284.208 186.086C284.202 185.568 283.976 185.115 283.619 184.794C283.288 184.496 282.892 184.349 282.549 184.276L282.54 184.274L282.532 184.272C281.957 184.157 281.336 184.118 280.676 184.196C280.046 184.27 279.496 184.418 278.998 184.596L278.961 184.609L278.926 184.624C278.654 184.74 278.343 184.903 278.086 185.15C277.8 185.426 277.558 185.834 277.558 186.353V186.375L277.559 186.398L277.924 196.513C277.929 196.82 278.009 197.12 278.164 197.386L272.978 197.548C273.6 197.266 274.184 196.901 274.706 196.484C275.446 195.892 276.027 195.195 276.519 194.388L276.523 194.381L276.527 194.374C277.028 193.526 277.319 192.555 277.426 191.552L277.429 191.53L277.43 191.508C277.501 190.511 277.398 189.545 277.089 188.658L277.078 188.626L277.066 188.595C276.725 187.762 276.227 187.032 275.575 186.419C274.923 185.805 274.159 185.349 273.298 185.05C272.491 184.769 271.619 184.584 270.66 184.584C269.71 184.584 268.782 184.766 267.945 185.045L267.931 185.049L267.917 185.054C267.036 185.372 266.241 185.802 265.515 186.384C264.761 186.987 264.18 187.723 263.724 188.494L263.718 188.504L263.712 188.515C263.233 189.361 262.931 190.295 262.853 191.305C262.75 192.288 262.816 193.223 263.09 194.086C263.358 194.928 263.791 195.687 264.435 196.331L265.319 195.447L264.435 196.331C265.041 196.937 265.77 197.436 266.681 197.777L267.12 196.607ZM269.405 191.671L269.406 191.654L269.407 191.637C269.432 190.739 269.632 190.241 269.836 189.971C270.093 189.664 270.252 189.647 270.324 189.647C270.326 189.647 270.328 189.647 270.33 189.647C270.375 189.647 270.472 189.645 270.642 189.892C270.771 190.118 270.896 190.591 270.819 191.48C270.739 192.215 270.563 192.747 270.356 193.086C270.246 193.266 270.161 193.312 269.958 193.312C269.904 193.312 269.873 193.302 269.846 193.288C269.814 193.271 269.746 193.227 269.652 193.11L269.623 193.074L269.592 193.04C269.582 193.03 269.517 192.951 269.463 192.718C269.409 192.484 269.379 192.142 269.405 191.671Z" fill="white" stroke="black" stroke-width="2.50001"/>
<path d="M241.478 186.402C241.717 186.615 241.98 186.766 242.26 186.861C242.163 186.919 242.069 186.98 241.978 187.045L241.955 187.061L241.933 187.079C241.22 187.639 240.814 188.421 240.814 189.344C240.814 189.35 240.814 189.356 240.814 189.362C240.814 189.608 240.814 189.955 240.899 190.382C240.907 190.419 240.914 190.459 240.923 190.5C240.971 190.749 241.036 191.076 241.125 191.385C241.159 191.547 241.197 191.703 241.23 191.833L241.233 191.844C241.272 192.002 241.303 192.125 241.327 192.244C241.399 192.607 241.504 192.928 241.567 193.117C241.782 193.924 242.284 194.575 243.092 194.978L243.622 193.919L243.092 194.978C243.099 194.982 243.106 194.986 243.114 194.989L240.899 195.052L240.73 195.057L240.567 195.107C240.048 195.267 239.388 195.589 239.037 196.266C238.77 196.756 238.661 197.305 238.713 197.85C238.765 198.442 238.974 199.006 239.384 199.475C239.91 200.077 240.656 200.279 241.357 200.236L241.45 200.234C241.235 200.359 241.034 200.519 240.855 200.72L240.834 200.745L240.813 200.77C240.383 201.308 240.204 201.892 240.204 202.497C240.204 203.158 240.451 203.744 240.865 204.22C241.353 204.812 242.023 205.027 242.664 205.042C242.243 205.176 241.848 205.373 241.508 205.657C240.849 206.206 240.509 206.958 240.509 207.807L240.509 207.831C240.509 208.128 240.509 208.551 240.587 209.02L240.59 209.039C240.649 209.393 240.717 209.801 240.821 210.216L240.828 210.243C240.915 210.591 241.019 211.011 241.164 211.408C241.273 211.709 241.408 212.039 241.596 212.346C241.824 212.995 242.251 213.522 242.855 213.873C243.485 214.24 244.224 214.367 244.963 214.367C246.217 214.367 247.445 214.271 248.617 214.075C249.737 213.889 250.835 213.67 251.849 213.417C252.567 213.248 253.175 212.813 253.507 212.099C253.786 211.528 253.836 210.915 253.727 210.37L253.723 210.351L253.719 210.334C253.558 209.635 253.165 209.066 252.608 208.675L252.592 208.664C252.781 208.584 252.963 208.49 253.133 208.379C253.85 207.948 254.21 207.284 254.385 206.584L254.409 206.491L254.417 206.394C254.478 205.726 254.539 205.089 254.599 204.483C254.632 204.161 254.655 203.834 254.678 203.527L254.679 203.519C254.702 203.203 254.723 202.907 254.752 202.621L254.758 202.559V202.497C254.758 201.52 254.242 200.737 253.484 200.216L253.461 200.2L253.438 200.186C253.298 200.098 253.152 200.02 253.001 199.952L253.8 199.932C254.558 199.928 255.322 199.675 255.858 199.005C256.239 198.529 256.498 197.956 256.498 197.278C256.498 196.539 256.157 195.95 255.785 195.532C255.26 194.941 254.526 194.686 253.783 194.686H253.765L253.747 194.686L252.635 194.718C253.375 194.567 254.006 194.179 254.397 193.527L254.422 193.486L254.443 193.443C254.701 192.927 254.82 192.355 254.711 191.702L254.697 191.619L254.672 191.54C254.502 190.987 254.218 190.434 253.704 189.971L253.677 189.947L253.648 189.924C253.364 189.697 253.044 189.544 252.707 189.46C253.029 189.091 253.237 188.636 253.311 188.117L253.316 188.084L253.319 188.051L253.624 184.633L253.629 184.578V184.522C253.629 183.95 253.388 183.462 253.095 183.111L253.059 183.068L253.019 183.028C252.789 182.798 252.502 182.549 252.157 182.333L252.082 182.286L252.002 182.251C251.697 182.115 251.328 181.966 250.907 181.851L250.846 181.835L250.784 181.824C250.754 181.819 250.723 181.814 250.691 181.808C250.374 181.755 249.961 181.685 249.541 181.685H249.523L249.505 181.686C249.306 181.691 249.114 181.697 248.93 181.702C248.113 181.726 247.445 181.746 246.916 181.746H246.889L246.862 181.747C246.722 181.753 246.589 181.759 246.462 181.765C245.934 181.789 245.523 181.807 245.207 181.807H245.166L245.124 181.81C245.011 181.817 244.909 181.825 244.815 181.831C244.495 181.853 244.279 181.868 244.109 181.868H244.107H244.105H244.103H244.102H244.1H244.098H244.096H244.094H244.093H244.091H244.089H244.087H244.086H244.084H244.082H244.08H244.079H244.077H244.075H244.073H244.071H244.07H244.068H244.066H244.064H244.063H244.061H244.059H244.057H244.056H244.054H244.052H244.05H244.049H244.047H244.045H244.043H244.042H244.04H244.038H244.037H244.035H244.033H244.031H244.03H244.028H244.026H244.024H244.023H244.021H244.019H244.018H244.016H244.014H244.012H244.011H244.009H244.007H244.006H244.004H244.002H244H243.999H243.997H243.995H243.994H243.992H243.99H243.989H243.987H243.985H243.983H243.982H243.98H243.978H243.977H243.975H243.973H243.972H243.97H243.968H243.967H243.965H243.963H243.962H243.96H243.958H243.956H243.955H243.953H243.951H243.95H243.948H243.946H243.945H243.943H243.941H243.94H243.938H243.936H243.935H243.933H243.931H243.93H243.928H243.926H243.925H243.923H243.922H243.92H243.918H243.917H243.915H243.913H243.912H243.91H243.908H243.907H243.905H243.903H243.902H243.9H243.899H243.897H243.895H243.894H243.892H243.89H243.889H243.887H243.885H243.884H243.882H243.881H243.879H243.877H243.876H243.874H243.872H243.871H243.869H243.868H243.866H243.864H243.863H243.861H243.86H243.858H243.856H243.855H243.853H243.851H243.85H243.848H243.847H243.845H243.843H243.842H243.84H243.839H243.837H243.835H243.834H243.832H243.831H243.829H243.827H243.826H243.824H243.823H243.821H243.82H243.818H243.816H243.815H243.813H243.812H243.81H243.808H243.807H243.805H243.804H243.802H243.801H243.799H243.797H243.796H243.794H243.793H243.791H243.79H243.788H243.786H243.785H243.783H243.782H243.78H243.779H243.777H243.775H243.774H243.772H243.771H243.769H243.768H243.766H243.764H243.763H243.761H243.76H243.758H243.757H243.755H243.754H243.752H243.75H243.749H243.747H243.746H243.744H243.743H243.741H243.74H243.738H243.737H243.735H243.733H243.732H243.73H243.729H243.727H243.726H243.724H243.723H243.721H243.72H243.718H243.717H243.715H243.714H243.712H243.71H243.709H243.707H243.706H243.704H243.703H243.701H243.7H243.698H243.697H243.695H243.694H243.692H243.691H243.689H243.688H243.686H243.685H243.683H243.682H243.68H243.678H243.677H243.675H243.674H243.672H243.671H243.669H243.668H243.666H243.665H243.663H243.662H243.66H243.659H243.657H243.656H243.654H243.653H243.651H243.65H243.648H243.647H243.645H243.644H243.642H243.641H243.639H243.638H243.636H243.635H243.633H243.632H243.63H243.629H243.627H243.626H243.624H243.623H243.621H243.62H243.618H243.617H243.615H243.614H243.612H243.611H243.609H243.608H243.606H243.605H243.604H243.602H243.601H243.599H243.598H243.596H243.595H243.593H243.592H243.59H243.589H243.587H243.586H243.584H243.583H243.581H243.58H243.578H243.577H243.575H243.574H243.572H243.571H243.57H243.568H243.567H243.565H243.564H243.562H243.561H243.559H243.558H243.556H243.555H243.553H243.552H243.55H243.549H243.547H243.546H243.545H243.543H243.542H243.54H243.539H243.537H243.536H243.534H243.533H243.531H243.53H243.528H243.527H243.526H243.524H243.523H243.521H243.52H243.518H243.517H243.515H243.514H243.512H243.511H243.51H243.508H243.507H243.505H243.504H243.502H243.501H243.499H243.498H243.496H243.495H243.494H243.492H243.491H243.489H243.488H243.486H243.485H243.483H243.482H243.48H243.479H243.478H243.476H243.475H243.473H243.472H243.47H243.469H243.467H243.466H243.465H243.463H243.462H243.46H243.459H243.457H243.456H243.454H243.453H243.452H243.45H243.449H243.447H243.446H243.444H243.443H243.441H243.44H243.439H243.437H243.436H243.434H243.433H243.431H243.43H243.429H243.427H243.426H243.424H243.423H243.421H243.42H243.418H243.417H243.416H243.414H243.413H243.411H243.41H243.408H243.407H243.406H243.404H243.403H243.401H243.4H243.398H243.397H243.395H243.394H243.393H243.391H243.39H243.388H243.387H243.385H243.384H243.383H243.381H243.38H243.378H243.377H243.375H243.374H243.373H243.371H243.37H243.368H243.367H243.365H243.364H243.362H243.361H243.36H243.358H243.357H243.355H243.354H243.352H243.351H243.35H243.348H243.347H243.345H243.344H243.342H243.341H243.34H243.338H243.337H243.335H243.334H243.332H243.331H243.33H243.328H243.327H243.325H243.324H243.322H243.321H243.32H243.318H243.317H243.315H243.279L243.242 181.87C242.55 181.911 241.743 182.132 241.217 182.855C240.816 183.369 240.617 183.96 240.662 184.609C240.675 185.274 240.925 185.911 241.478 186.402Z" fill="white" stroke="black" stroke-width="2.50001"/>
<path d="M217.369 187.034L217.296 187.026H217.223C216.65 187.026 216.023 187.054 215.425 187.224C215.058 187.323 214.665 187.503 214.352 187.827C214.013 188.177 213.837 188.627 213.837 189.1V189.109C213.837 189.745 213.837 190.438 213.868 191.196C213.87 191.228 213.871 191.26 213.872 191.291C213.901 191.991 213.933 192.745 213.993 193.502L213.994 193.517C214.054 194.262 214.116 195.039 214.209 195.791C214.275 196.567 214.403 197.299 214.525 197.916C214.664 198.866 215.111 199.668 215.804 200.28C216.538 200.96 217.461 201.286 218.471 201.333C219.049 201.396 219.673 201.428 220.336 201.397C220.997 201.395 221.676 201.33 222.287 201.272L222.316 201.269L222.316 201.269L222.322 201.269C222.354 201.266 222.387 201.262 222.421 201.259C222.983 201.203 223.638 201.138 224.273 201.013C224.883 200.921 225.457 200.825 226.039 200.696L226.102 200.682L226.163 200.662C226.764 200.461 227.423 200.099 227.789 199.388C227.829 199.314 227.865 199.239 227.896 199.164L228.058 205.355C228.063 205.808 228.221 206.268 228.584 206.631C228.908 206.955 229.304 207.111 229.644 207.189C230.249 207.355 230.893 207.383 231.552 207.31L231.571 207.308L231.59 207.305C232.058 207.238 232.571 207.133 233.075 206.944C233.352 206.855 233.674 206.713 233.949 206.468C234.27 206.182 234.525 205.753 234.525 205.213V205.204L234.525 205.195L234.39 196.054L236.35 195.904C237.096 195.892 237.844 195.636 238.371 194.977C238.711 194.552 239.042 193.977 239.042 193.22C239.042 192.48 238.699 191.903 238.371 191.493L238.351 191.467L238.329 191.443C237.831 190.882 237.146 190.596 236.388 190.596H236.348L236.308 190.599L234.29 190.729L234.22 186.462C234.215 185.867 233.896 185.435 233.575 185.179C233.278 184.941 232.932 184.807 232.642 184.724C232.043 184.553 231.413 184.523 230.864 184.523H230.795L230.726 184.531C230.117 184.599 229.557 184.706 229.01 184.901C228.723 185.004 228.381 185.161 228.098 185.433C227.773 185.746 227.57 186.171 227.57 186.658V186.675L227.57 186.691L227.842 197.1C227.629 196.632 227.29 196.239 226.836 195.949C226.176 195.53 225.428 195.449 224.672 195.631C224.545 195.657 224.431 195.682 224.322 195.705C224.112 195.751 223.921 195.793 223.686 195.829C223.281 195.892 222.931 195.945 222.59 195.971L222.549 195.974L222.509 195.98C222.128 196.034 221.77 196.062 221.369 196.093C221.223 196.104 221.081 196.111 220.942 196.115C220.715 195.003 220.564 193.96 220.516 192.976L220.515 192.959L220.514 192.943C220.427 191.786 220.428 190.606 220.542 189.401L220.548 189.342V189.283C220.548 188.193 219.652 187.678 219.15 187.463L219.114 187.447L219.078 187.434C218.568 187.252 217.987 187.107 217.369 187.034ZM220.383 196.12C220.383 196.12 220.385 196.12 220.389 196.12C220.385 196.12 220.383 196.12 220.383 196.12Z" fill="white" stroke="black" stroke-width="2.50001"/>
</g>
<rect x="38.5" y="5.5" width="537" height="758" rx="14.2143" stroke="#6D6D6D" stroke-width="3"/>
</g>
<path fill-rule="evenodd" clip-rule="evenodd" d="M8 104C3.58172 104 0 107.582 0 112V128.357C0 132.775 3.58172 136.357 8 136.357H67C71.4183 136.357 75 132.775 75 128.357V112C75 107.582 71.4183 104 67 104H8ZM8.57143 109.393C5.81001 109.393 3.57143 111.631 3.57143 114.393V125.964C3.57143 128.726 5.81 130.964 8.57142 130.964H66.4286C69.19 130.964 71.4286 128.726 71.4286 125.964V114.393C71.4286 111.631 69.19 109.393 66.4286 109.393H8.57143Z" fill="url(#paint1_linear_142_480)"/>
<path fill-rule="evenodd" clip-rule="evenodd" d="M8 179.5C3.58172 179.5 0 183.082 0 187.5V203.857C0 208.275 3.58172 211.857 8 211.857H67C71.4183 211.857 75 208.275 75 203.857V187.5C75 183.082 71.4183 179.5 67 179.5H8ZM8.57143 184.893C5.81001 184.893 3.57143 187.131 3.57143 189.893V201.464C3.57143 204.226 5.81 206.464 8.57142 206.464H66.4286C69.19 206.464 71.4286 204.226 71.4286 201.464V189.893C71.4286 187.131 69.19 184.893 66.4286 184.893H8.57143Z" fill="url(#paint2_linear_142_480)"/>
<path fill-rule="evenodd" clip-rule="evenodd" d="M8 255C3.58172 255 0 258.582 0 263V279.357C0 283.775 3.58172 287.357 8 287.357H67C71.4183 287.357 75 283.775 75 279.357V263C75 258.582 71.4183 255 67 255H8ZM8.57143 260.393C5.81001 260.393 3.57143 262.631 3.57143 265.393V276.964C3.57143 279.726 5.81 281.964 8.57142 281.964H66.4286C69.19 281.964 71.4286 279.726 71.4286 276.964V265.393C71.4286 262.631 69.19 260.393 66.4286 260.393H8.57143Z" fill="url(#paint3_linear_142_480)"/>
<path fill-rule="evenodd" clip-rule="evenodd" d="M8 330.5C3.58172 330.5 0 334.082 0 338.5V354.857C0 359.275 3.58172 362.857 8 362.857H67C71.4183 362.857 75 359.275 75 354.857V338.5C75 334.082 71.4183 330.5 67 330.5H8ZM8.57143 335.893C5.81001 335.893 3.57143 338.131 3.57143 340.893V352.464C3.57143 355.226 5.81 357.464 8.57142 357.464H66.4286C69.19 357.464 71.4286 355.226 71.4286 352.464V340.893C71.4286 338.131 69.19 335.893 66.4286 335.893H8.57143Z" fill="url(#paint4_linear_142_480)"/>
<path fill-rule="evenodd" clip-rule="evenodd" d="M8 406C3.58172 406 0 409.582 0 414V430.357C0 434.775 3.58172 438.357 8 438.357H67C71.4183 438.357 75 434.775 75 430.357V414C75 409.582 71.4183 406 67 406H8ZM8.57143 411.393C5.81001 411.393 3.57143 413.631 3.57143 416.393V427.964C3.57143 430.726 5.81 432.964 8.57142 432.964H66.4286C69.19 432.964 71.4286 430.726 71.4286 427.964V416.393C71.4286 413.631 69.19 411.393 66.4286 411.393H8.57143Z" fill="url(#paint5_linear_142_480)"/>
<path fill-rule="evenodd" clip-rule="evenodd" d="M8 481.5C3.58172 481.5 0 485.082 0 489.5V505.857C0 510.275 3.58172 513.857 8 513.857H67C71.4183 513.857 75 510.275 75 505.857V489.5C75 485.082 71.4183 481.5 67 481.5H8ZM8.57143 486.893C5.81001 486.893 3.57143 489.131 3.57143 491.893V503.464C3.57143 506.226 5.81 508.464 8.57142 508.464H66.4286C69.19 508.464 71.4286 506.226 71.4286 503.464V491.893C71.4286 489.131 69.19 486.893 66.4286 486.893H8.57143Z" fill="url(#paint6_linear_142_480)"/>
<path fill-rule="evenodd" clip-rule="evenodd" d="M8 557C3.58172 557 0 560.582 0 565V581.357C0 585.775 3.58172 589.357 8 589.357H67C71.4183 589.357 75 585.775 75 581.357V565C75 560.582 71.4183 557 67 557H8ZM8.57143 562.393C5.81001 562.393 3.57143 564.631 3.57143 567.393V578.964C3.57143 581.726 5.81 583.964 8.57142 583.964H66.4286C69.19 583.964 71.4286 581.726 71.4286 578.964V567.393C71.4286 564.631 69.19 562.393 66.4286 562.393H8.57143Z" fill="url(#paint7_linear_142_480)"/>
<path fill-rule="evenodd" clip-rule="evenodd" d="M8 632.5C3.58172 632.5 0 636.082 0 640.5V656.857C0 661.275 3.58172 664.857 8 664.857H67C71.4183 664.857 75 661.275 75 656.857V640.5C75 636.082 71.4183 632.5 67 632.5H8ZM8.57143 637.893C5.81001 637.893 3.57143 640.131 3.57143 642.893V654.464C3.57143 657.226 5.81 659.464 8.57142 659.464H66.4286C69.19 659.464 71.4286 657.226 71.4286 654.464V642.893C71.4286 640.131 69.19 637.893 66.4286 637.893H8.57143Z" fill="url(#paint8_linear_142_480)"/>
<defs>
<filter id="filter0_d_142_480" x="20.7499" y="0.249979" width="572.5" height="793.5" filterUnits="userSpaceOnUse" color-interpolation-filters="sRGB">
<feFlood flood-opacity="0" result="BackgroundImageFix"/>
<feColorMatrix in="SourceAlpha" type="matrix" values="0 0 0 0 0 0 0 0 0 0 0 0 0 0 0 0 0 0 127 0" result="hardAlpha"/>
<feMorphology radius="3.75002" operator="dilate" in="SourceAlpha" result="effect1_dropShadow_142_480"/>
<feOffset dy="12.5001"/>
<feGaussianBlur stdDeviation="6.25004"/>
<feComposite in2="hardAlpha" operator="out"/>
<feColorMatrix type="matrix" values="0 0 0 0 0 0 0 0 0 0 0 0 0 0 0 0 0 0 0.25 0"/>
<feBlend mode="normal" in2="BackgroundImageFix" result="effect1_dropShadow_142_480"/>
<feBlend mode="normal" in="SourceGraphic" in2="effect1_dropShadow_142_480" result="shape"/>
</filter>
<linearGradient id="paint0_linear_142_480" x1="307" y1="7" x2="307" y2="762" gradientUnits="userSpaceOnUse">
<stop stop-color="#181832"/>
<stop offset="0.23" stop-color="#182449"/>
<stop offset="0.77" stop-color="#3F568B"/>
<stop offset="1" stop-color="#8088B2"/>
</linearGradient>
<linearGradient id="paint1_linear_142_480" x1="37.5" y1="104" x2="37.5" y2="136.357" gradientUnits="userSpaceOnUse">
<stop stop-color="#D3D3D3"/>
<stop offset="0.51" stop-color="#7A7A7A"/>
<stop offset="1" stop-color="#6D6D6D"/>
</linearGradient>
<linearGradient id="paint2_linear_142_480" x1="37.5" y1="179.5" x2="37.5" y2="211.857" gradientUnits="userSpaceOnUse">
<stop stop-color="#D3D3D3"/>
<stop offset="0.51" stop-color="#7A7A7A"/>
<stop offset="1" stop-color="#6D6D6D"/>
</linearGradient>
<linearGradient id="paint3_linear_142_480" x1="37.5" y1="255" x2="37.5" y2="287.357" gradientUnits="userSpaceOnUse">
<stop stop-color="#D3D3D3"/>
<stop offset="0.51" stop-color="#7A7A7A"/>
<stop offset="1" stop-color="#6D6D6D"/>
</linearGradient>
<linearGradient id="paint4_linear_142_480" x1="37.5" y1="330.5" x2="37.5" y2="362.857" gradientUnits="userSpaceOnUse">
<stop stop-color="#D3D3D3"/>
<stop offset="0.51" stop-color="#7A7A7A"/>
<stop offset="1" stop-color="#6D6D6D"/>
</linearGradient>
<linearGradient id="paint5_linear_142_480" x1="37.5" y1="406" x2="37.5" y2="438.357" gradientUnits="userSpaceOnUse">
<stop stop-color="#D3D3D3"/>
<stop offset="0.51" stop-color="#7A7A7A"/>
<stop offset="1" stop-color="#6D6D6D"/>
</linearGradient>
<linearGradient id="paint6_linear_142_480" x1="37.5" y1="481.5" x2="37.5" y2="513.857" gradientUnits="userSpaceOnUse">
<stop stop-color="#D3D3D3"/>
<stop offset="0.51" stop-color="#7A7A7A"/>
<stop offset="1" stop-color="#6D6D6D"/>
</linearGradient>
<linearGradient id="paint7_linear_142_480" x1="37.5" y1="557" x2="37.5" y2="589.357" gradientUnits="userSpaceOnUse">
<stop stop-color="#D3D3D3"/>
<stop offset="0.51" stop-color="#7A7A7A"/>
<stop offset="1" stop-color="#6D6D6D"/>
</linearGradient>
<linearGradient id="paint8_linear_142_480" x1="37.5" y1="632.5" x2="37.5" y2="664.857" gradientUnits="userSpaceOnUse">
<stop stop-color="#D3D3D3"/>
<stop offset="0.51" stop-color="#7A7A7A"/>
<stop offset="1" stop-color="#6D6D6D"/>
</linearGradient>
<clipPath id="clip0_142_480">
<rect x="40" y="7" width="534" height="755" rx="12.7143" fill="white"/>
</clipPath>
</defs>
</svg>
